<?xml version="1.0" encoding="utf-8"?>
<!-- Generator: Adobe Illustrator 19.2.1, SVG Export Plug-In . SVG Version: 6.00 Build 0)  -->
<svg version="1.1" id="圖層_1" xmlns="http://www.w3.org/2000/svg" xmlns:xlink="http://www.w3.org/1999/xlink" x="0px" y="0px"
	 viewBox="0 0 720 540" style="enable-background:new 0 0 720 540;" xml:space="preserve">
<style type="text/css">
	.st0{fill:#CFEAF3;}
	.st1{fill:#F9F9F9;}
	.st2{fill:#FFE3CA;stroke:#999999;stroke-width:0.25;stroke-linecap:round;stroke-linejoin:round;}
	.st3{fill:#EBEDC3;stroke:#999999;stroke-width:0.25;stroke-linecap:round;stroke-linejoin:round;}
	.st4{fill:#FFF3DA;stroke:#999999;stroke-width:0.25;stroke-linecap:round;stroke-linejoin:round;}
	.st5{fill:#FCD4C7;stroke:#999999;stroke-width:0.25;stroke-linecap:round;stroke-linejoin:round;}
</style>
<g id="Sea">
	<rect class="st0" width="720" height="540"/>
</g>
<g>
	<g id="Land">
		<path class="st1" d="M311.6,270.2l-0.3,0.5h-0.4l-0.6-0.1l-0.7,0.2l0.1-0.2l0.2-0.8l-0.8,0.3l-1.3,0.8l-0.4-0.1h-0.3v0.7v0.7
			l0.2-0.1l0,0V272l0.1-0.2l0.3,0.4l0.3,0.3l0.4,0.2l0.4,0.2l-0.6,0.5l-0.8,0.2l-0.7-0.2l-0.5-0.6l-0.2,0.5l0.9,0.9l0.9,0.3l0.9-0.1
			l0.8-0.5l0.1-0.2l0.2-0.7l0.1-0.3l0.3-0.1l0.5-0.1l0.7-0.4l0.5,0.1l0.5,0.3l0.4,0.4l0.1-0.5l-0.2-0.7L311.6,270.2z M308.9,267
			l-0.6-0.5l-0.6-0.3l-1,0.7l0.8,0.8l0.4,0.5l0.2,0.6l0.2,0.3l0.4-0.1l0.3-0.4l-0.2-0.6l0.4-0.4L308.9,267z M304,268.3l-0.6,1.9v0.9
			l-0.1,0.4l-0.4,0.2h-0.5l-0.3,0.1l-0.2,0.2l-0.1,0.4h0.7l0.2-0.2l0.2-0.1l0.3-0.1h0.4l0.5-0.1l0.1-0.2l-0.1-0.4v-0.4l0.5-1.5
			l0.3-0.7l0.5-0.3l-0.8-0.7L304,268.3z M403.2,351l-0.2-0.5l0.1-0.5l0.2-0.4l0.1-0.2V349h-3.6l0.3,0.4l0.2,0.4v0.5l-0.2,0.5
			l0.7,0.7l1.2,0.9l1.3,0.5l1-0.3l0.1-0.5l-0.4-0.4L403.2,351z M400.1,319.3l0.1-0.7l-0.1-0.3l-0.2-0.1l-1.8,0.1l-0.1,0.1l0.3,0.8
			l0.5,0.9l0.5,0.2l0.1,0.1h0.2h0.3h0.1v-0.2l-0.1-0.3l0.1-0.3L400.1,319.3z M413.5,226.7l1.3-1.5l1.1-0.7l0.5-0.4l-0.1-0.5
			l-0.3-0.5l-0.1-0.5l0.1-0.4l1.1-0.6l0.2-1l-0.2-1.2l-0.5-0.9l0.3-0.2l0.5-0.2l0.6-0.1l0.6,0.1v-0.3l-1.4-0.3l-1.2-0.7l-0.6-1.1
			v-1.5l0.3-0.7v-0.7l-0.6-2.8v-1.3l0.1-1.4l0.3-1.4l0.4-1.2l0.5-0.9l3.4-4.1l1-0.9l3.8-1.9l-0.4-0.5l-0.7-0.3l-0.8-0.2l-0.7-0.1
			l-1.3,0.2l-0.4-0.2l-0.5-0.7l-0.4-1.6l-0.1-0.9l0.1-0.5l0.3-0.7l-0.6-0.4l-8.3-2l-0.7-0.3l-0.3-0.3l-0.1-0.2l-0.7-0.5l-0.2-0.2
			v-0.4l0.2-0.3l0.2-0.2v-0.2l-0.4-0.1l-0.6,0.1l-0.5,0.1l-0.2,0.1l-0.7-1.4l-1.8-2.6l-0.8-0.6l-2-0.2l-2,0.5l-1.7,0.9l-1.2,1.1
			l-0.6,1.1l-0.4,0.9l-0.1,0.2l-0.3,0.2l-0.3,0.3l-0.2,0.5l0.6,0.3l1.1,1.1l0.7,1l-0.6,0.3l-0.3-0.3l-0.2-0.5l-0.3-0.5l-0.6-0.2
			h-0.6l-0.4,0.1l-0.3,0.2l-1.1,0.9l-0.9,0.3l-2,0.4l-3.7,0.7l-1.6,0.6l-0.8,0.4l-0.7,0.6l-0.8,0.5l-3.3,1.1l-1.3,1.1l-1.3,1.5
			l-2.1,2.3l-0.4,0.6l-0.4,1.1l-0.1,0.5v0.2l-0.5,0.2l-0.5,0.4l-0.4,0.5l-0.2,0.5l-0.1,0.7l-0.3,0.4l0,0l-0.3,0.3l-0.3,0.5l0.2,0.4
			l0.1,0.3v0.3l-0.1,0.3l-0.4,0.5l-1,2.1l-0.3,1l-0.7,0.3l-0.2,0.3l-0.3,1l-0.7,0.7l-0.5,0.7l0.2,1l-1.3-0.2l-1,0.3l-0.8,0.6
			l-0.8,0.8l-0.2,0.4l-0.2,0.5l-0.3,0.4l-1.2,0.4l-0.3,0.5l-0.3,1.1l-1.1,1.9l-0.4,1l-0.2,1.2l-0.3,0.7l-1.3,1.5l-2.4,2.7l-0.6,1
			l-0.5,1.8l-1.7,2.9l-0.5,2.2l-0.4,1.2l-0.6,0.5l-0.1,0.6l-0.1,0.1l-2.1,2.4l-0.5,0.5l-0.2,0.5l-0.1,1.8l-0.2,0.6l-0.9,0.7
			l-0.2,0.5l-0.1,0.5l-0.3,0.3l-0.4,0.2l-0.5,0.3l-0.5,0.5l-0.5,0.9l-1.1,2.9l-0.7,1.4l-0.5,1.4l-0.4,0.5l-1.3,1.2l-0.2,0.5
			l-0.3,1.3l-0.3,0.6l-1,0.8l-0.1,0.3l-0.2,0.5l-1.1,1.5l-0.2,0.5l-0.4,1.6l-0.2,1.8l-0.8,1.4l-0.5,1.8l-0.1,2.2v3l-0.8,0.9v1.6
			l1.6-0.1l-0.7,1l-0.2,0.5l-0.3,0.4l-0.1,0.3l0.6,0.3v0.4l-0.4,0.7l0.8,1.5l0.7,1.9h-1h-0.7l-0.4,1v0.6h0.4l0.3,0.1l0.4-0.3
			l0.2,0.6l-0.3-0.1l-0.6,0.3H334l-0.3,0.7l0.7,0.5l-0.5,0.1l-0.3,0.3L333,288l-0.1,0.4l0.1,0.4l-0.4,0.5l-0.3,0.7l-0.2,0.5l0.2,0.6
			l0.1,0.7l-0.2,0.5l-0.5,0.2l-0.5,0.3l-0.1,0.7l0.5,0.6l0.8,0.7l0.1,0.5h-1.4v0.4l1.7,0.4l0.3,0.3l-0.2,0.5l-0.6,0.2l-0.7,0.1
			l-0.5,0.3l-0.2,0.4l-0.1,0.6l0.1,0.6l0.5,0.5l0.5-0.1l0.3-0.5l0.4-0.4l0.7,0.3l0.1,0.4l-0.1,1.3l0.2,0.4h0.6l0.3-0.5l0.2-0.6
			l0.2-0.3l1.2,0.2l0.2,1l-0.5,1.1l-0.9,0.6l0.7,0.7l0.3,0.7l0.2,1.1l0.4,2.5l0.1,0.4l0.5,0.9l0.1,0.4l0.2,0.2l0.2,0.2l0.1,0.2
			l-0.1,0.4l-0.3,0.7v0.5l0.2,0.8l0.8,1.9l0.9,1.4l0.5,1l0.3,1.1l-0.2,0.7l-0.4,0.8l0.3,0.9l0.6,0.8l1.6,1.5l1,1.1l0.3,0.6l0.4,0.7
			l0.3,1.3l-2.3-2.8l2.2,3.1l2.4,1.9h0.4l0.3-0.1h0.3l0.5,0.2l0.4,0.3l0.9,0.8l0.8,0.6l1.8,0.9l0.8,0.5l0.1,0.2l0.2,0.7l0.2,0.1
			l0.2,0.1l0.6,0.3l1.5,1.2l0.4,0.5l0.8,1.8l1,1.2l0.3,0.5l3.6,9.4l-0.1,0.5l-0.4,0.6l-0.1,0.6v2l-0.1,0.6v0.4l0.1,0.4l1,1.7
			l0.3,1.2v0.4l0.7,0.6l0.6,0.2l0.4-0.4l0.1-1.2l1.4,0.4l1.4,0.6l1.2,0.9l0.8,1.2l0.1-1.1l-0.3-1.7v-1.5l0.7-0.7l0.6-0.4l0.5-1.1
			l0.3-1.3l-0.2-9.4v-2.7l0.3-2.9l0.2-1l1.7-3l0.9-3l0.3-2.2l0.6-1.1l1.5-1.8l0.5-0.9l0.9-2.4l0.4-0.5l0.5-0.3l2-2.2l2.9-2l0.9-0.8
			l0.9-1.1l0.4-0.6l0.2-0.6v-0.5l-0.1-1.1l0.1-0.5l0.6-0.7l2.5-2.1l0.2-0.5l1.9-2.7l0.4-1.1l0.5-2.4l0.9-1.5l0.3-1.1l0.2-0.4
			l0.4-0.4l0.9-0.6l0.4-0.4l0.9-1.8l0.2-1.8v-1.8l0.3-2.1l0.4-1.1l0.5-0.9l1.3-1.7l0.4-0.9l0.8-4.8l2-11.7l0.9-1.8l1.5-7.3l1.2-3.1
			l0.6-3l0.1-1.2l0.1-0.6l0.7-1l0.2-0.7v-0.6l-0.2-0.2l-0.2-0.2l-0.3-0.4l-0.3-1v-0.9l0.3-0.8l1.3-2l0.5-2.2l0.5-1.1l0.5-0.4
			l1.2-0.9l0.2-0.3l-0.1-0.4l0.3-0.4l0.8-0.7l1.1-1.6l1.1-1l0.3-0.4v-0.2l-0.1-0.3l-0.6-0.1l-0.1-0.1l0,0l-0.2-0.3l0.1-0.2l0.2-0.2
			l0.1-0.3l0.1-1.2l0.1-0.6l0.2-0.4l0.2-0.5l-0.1-1.3V226.7z"/>
	</g>
	<g id="Taiwan_-_Counties">
		<polygon id="Yunlin_County" class="st2" points="363.4,268.8 361.9,269 360.6,269.3 359.6,268.8 358.9,268 359,267 359.4,266 
			359.2,264.7 359.4,263.3 359.8,262.5 359.4,261.2 359.2,261.3 357,260.8 356,260.8 353.8,259.8 350.2,259.3 348.1,258.5 
			346.9,258.3 345.5,258.2 341.5,258.7 340.1,257.8 340.1,257.8 340,258.2 338.9,259 338.8,259.2 338.6,259.7 337.5,261.2 
			337.3,261.8 336.8,263.3 336.6,265.2 335.8,266.5 335.3,268.3 335.2,270.5 335.2,273.5 334.4,274.5 334.6,274.5 334.6,274.5 
			336.5,274.3 338,275 339.1,275 339.8,274.5 340.1,273.7 340.5,273 341.5,273 342.8,271.8 343.6,271.5 344.3,270.8 347.2,269 
			348.5,268.8 350.8,268.3 352.1,268.3 353,269 353.9,270.2 356.2,271 356.9,270.8 358.4,270.5 359.3,271 359.7,271.8 360.9,271.7 
			363,271.3 363.7,271 363.7,270.3 363.8,269.5 363.9,269.5 		"/>
		<path id="Yilan_County" class="st3" d="M422.7,197.6l-0.1-0.2l-0.6-0.3l-1.1,0.2l-1.5,0.8l-0.7,0.4l-2,0.4l-0.3,0.5l0.5,0.6
			l-0.3,0.7l-0.8,0.5l-0.6,0.2l-0.7,0.4l-0.6,0.7l-0.6,0.9l-0.9,0.7l-1.1,0.3l-2.5,1.5l-2.4,1l-0.7,0.4l-0.9,0.7l-0.3,0.9v0.8
			l0.2,0.6l0.1,0.4l-0.7,0.5l-1.2,0.6l-0.9,0.6l-0.7,0.6l-0.9,0.3l-1,0.3l-0.6,0.2l-1,0.7l0.6,2.3l-0.4,0.7l-0.6,0.2l-0.6-0.1
			l-0.7,0.3l-0.1,0.3l-0.4,1.2l-0.2,0.9l0.1,0.8l-0.7,1.1l-2.5,2.6l-0.8,1.9l0.7,0.2l-0.1,1l0.3,0.7l0.9,0.2l0.8,0.5l0.7,0.5
			l0.7-0.1l0.9-0.4h0.9l1.1,0.9l0.5,0.4l1.2,0.6l2.7,0.7l1.5,0.6h1.2l0.9-0.8l0.4-1.1l0.7-0.2l3.4,2l2,0.3h0.2l0,0l-0.2-0.3l0.1-0.2
			l0.2-0.2l0.1-0.3l0.1-1.2l0.1-0.6l0.2-0.4l0.2-0.5l-0.1-1.3v-0.6l1.3-1.5l1.1-0.7l0.5-0.4l-0.1-0.5l-0.3-0.5l-0.1-0.5l0.1-0.4
			l1.1-0.6l0.2-1l-0.2-1.2l-0.5-0.9l0.3-0.2l0.5-0.2l0.6-0.1l0.6,0.1v-0.3l-1.4-0.3l-1.2-0.7l-0.6-1.1v-1.5l0.3-0.7v-0.7l-0.6-2.8
			v-1.3l0.1-1.4l0.3-1.4l0.4-1.2l0.5-0.9l3.4-4.1l1-0.9L422.7,197.6L422.7,197.6z M421.7,204.7l-0.4-0.1l0,0l0,0l0,0l0,0l-0.5,0.3
			l-0.2-0.1l0.2,0.4l0,0l0.1,0.1l0.2,0.1h0.7l0.1-0.4l-0.1-0.1L421.7,204.7z"/>
		<path id="Taitung_County" class="st4" d="M404,351.7l-0.8-0.6l-0.2-0.5l0.1-0.5l0.2-0.4l0.1-0.2v-0.3h-3.6l0.3,0.4l0.2,0.4v0.5
			l-0.2,0.5l0.7,0.7l1.2,0.9l1.3,0.5l1-0.3l0.1-0.5L404,351.7z M400,320.5v-0.2l-0.1-0.3l0.1-0.3l0.2-0.3l0.1-0.7l-0.1-0.3l-0.2-0.1
			l-1.8,0.1l-0.1,0.1l0.3,0.8l0.5,0.9l0.5,0.2l0.1,0.1h0.2H400L400,320.5z M399.2,278.8l-0.6-0.2l-2,0.9l-0.7,1l0.3,1.2l0.1,1.2
			l-0.7,1.2L395,285l-0.5,1.2l-0.4,1.5l-0.7,1.4l-0.9,2.4l-0.6,1.1v1.2l-0.2,1.1l-1.2,0.7l-1.5-0.2l-2.1-1.8l-1.7-2.9l-1-0.3
			l-1.1-0.2l-0.9-0.9l-1.1-0.5l-1.4-0.5l-0.9-1.5l-0.2-1.3l-2.8,0.7l-1.2,0.7l-0.7,0.7l-1.4,0.9l-0.2,1l0.4,1.1l-0.5,0.9l-1.3,0.7
			l-0.2,1.2l0.4,1.8l-0.6,2.4v2l-0.8,1.1l-1.6,1.3l-0.4,1.8l0.2,1.5l0.5,0.8l1.1,1.2l0.2,0.9l-0.7,0.1l0.6,1.2l0.1,0.9l1,0.2l1,0.7
			l-0.5,2.5v0.9l-0.4,0.9l-1.8,0.7l-0.9,0.5l-1.4,0.3l-1,0.8l-0.4,1.2l-0.7,1.2l-0.6,1.4l-0.1,2.7l0.2,1.2l0.4,1.1l0.2,1.3v1
			l0.5,0.9l0.8,1l-0.5,0.7l-1,0.6l-0.4,0.7l-0.1,0.8l0.5,0.7l0.6,0.3l0.6,0.8v1l0.1,1.1l0.6,1.1l0.8,0.9l1.9,0.9l0.8-0.1v-2.7
			l0.3-2.9l0.2-1l1.7-3l0.9-3l0.3-2.2l0.6-1.1l1.5-1.8l0.5-0.9l0.9-2.4l0.4-0.5l0.5-0.3l2-2.2l2.9-2l0.9-0.8l0.9-1.1l0.4-0.6
			l0.2-0.6v-0.5l-0.1-1.1l0.1-0.5l0.6-0.7l2.5-2.1l0.2-0.5l1.9-2.7l0.4-1.1l0.5-2.4l0.9-1.5l0.3-1.1l0.2-0.4l0.4-0.4l0.9-0.6
			l0.4-0.4l0.9-1.8l0.2-1.8V290l0.3-2.1l0.4-1.1l0.5-0.9l1.3-1.7l0.4-0.9L399.2,278.8z"/>
		<polygon id="Taoyuan_City" class="st4" points="399.4,213.7 398.9,212.7 397.3,211.2 397,210.2 396.9,209.2 397.5,208.4 
			397.7,207.6 396.2,205.3 395.3,204.9 393.9,205.1 393,204.4 393.2,203.2 393.1,202.3 392.1,201.4 391.9,200.4 392.1,199.4 
			392,198.3 392.7,197.6 395.1,196.8 395.7,196.3 395.9,195.4 395.8,194.8 394.9,193.3 394.1,192.9 393.3,192.8 392.8,192.3 
			391.9,191.8 390.8,191.1 390,190.3 386.3,190.9 384.7,191.6 383.9,192.1 383.2,192.6 382.4,193.1 379.1,194.3 377.8,195.3 
			376.5,196.8 374.9,199.4 375.5,199.7 378,199.4 378.8,200.1 379.5,201.6 380.4,201.9 381.2,202.2 382,202.6 383.2,202.9 
			383.9,203.7 383.7,204.7 384.3,205.4 385.5,205.7 386.2,206.3 386.8,206.9 387.5,207.1 388.2,206.9 388.8,207.7 389.3,208.4 
			390.1,208.8 390.7,209.3 390.8,210.2 391.1,211.6 390.7,212.9 389.9,214.2 390,214.9 390.9,215.7 392,216.3 393,216.6 
			393.8,217.1 395.1,217.7 396,218.2 396.1,217.8 396.8,217.7 397.4,217.7 398,217.4 398.4,216.7 397.8,214.6 398.8,213.8 		"/>
		<polygon id="Taipei" class="st3" points="406.9,195.1 406.1,194.6 406,193.6 406.3,192.4 406,191.6 405.3,190.9 404.9,189.1 
			404.6,188.4 404.3,187.9 404.2,187.3 404.3,186.6 403.9,186.3 403.2,185.9 402.5,186.3 402,186.8 400,187.9 399.4,188.8 
			399,189.6 398.6,189.9 398.4,190.6 399,191.3 400.1,192.3 400.3,193.4 400,194.8 400.7,196.1 401.8,196.8 402.5,197.6 
			403.1,198.3 404,198.4 405.1,198.4 405.8,198.1 407.2,196.3 407.6,195.6 		"/>
		<path id="Tainan" class="st3" d="M330.1,298l-0.2-0.2h-0.1l-0.1,0.2l0.3,0.8l0.4,0.4l0.1-0.2v-0.2l-0.4-0.4V298z M332.5,287.5
			l0.1-1.5h-0.1l-0.1,1.9l0,0L332.5,287.5z M332.1,290.2v-0.3H332l-0.7,1.8l0,0L332.1,290.2z M358.2,289.5l-0.7-0.2l-0.9,0.1l-1,0.4
			h-0.7l-0.8-0.6l-0.3-0.8l0.3-2.6l-0.2-1.4l-1.8-1.8l-0.3-0.9l-0.4-0.8l-0.7-0.4l-1.3-0.4l-1.5,0.1l-2.8,0.5l-1.4,0.6l-1.1,0.8
			l-0.8,0.9l-1.2,0.9l-1,0.6l-0.5,0.9l-1.1,0.5l-1.3-0.3l-1.6-0.2l-1-0.4l-0.3,0.7l0.7,0.5l-0.5,0.1l-0.3,0.3l-0.6,1.6l-0.1,0.4
			l0.1,0.4l-0.4,0.5l-0.3,0.7l-0.2,0.5l0.2,0.6l0.1,0.7l-0.2,0.5l-0.5,0.2l-0.5,0.3l-0.1,0.7l0.5,0.6l0.8,0.7l0.1,0.5h-1.4v0.4
			l1.7,0.4l0.3,0.3l-0.2,0.5l-0.6,0.2l-0.7,0.1l-0.5,0.3l-0.2,0.4l-0.1,0.6l0.1,0.6l0.5,0.5l0.5-0.1l0.3-0.5l0.4-0.4l0.7,0.3
			l0.1,0.4l-0.1,1.3l0.2,0.4h0.6l0.3-0.5l0.2-0.6l0.2-0.3l1.2,0.2l0.2,1l-0.5,1.1l-0.9,0.6l0.7,0.7l0.3,0.7l0.2,1.1l0,0l1.1-0.7v0.1
			l0.7,1.6l0.9,0.4l2.8,0.4l1.5-0.2l1.5,0.2l0.8-0.3l0.6-0.5l1.2-0.5l1.1-0.8l0.4-1l0.5-1l1-1.3l1.1-1.2l1.2-1l1.4-1.3l1.2-1.5
			l1.8-3.1l1.9-2.8l0.4-1.2L358.2,289.5z M331,292.8L331,292.8l-0.8,2.4l0,0l0.5-1.3v-0.2L331,292.8L331,292.8z"/>
		<polygon id="Taichung" class="st4" points="397,229.1 396.1,229.1 395.3,229.4 394.6,229.6 393.9,229.1 393.1,228.7 392.2,228.4 
			391.9,227.7 392,226.7 391.4,226.6 390.9,226.4 388.9,226.6 388.8,226.7 388.1,227.2 387.8,228.2 386.9,228.6 386,228.6 
			385.2,229.1 384.3,229.8 383.3,230.4 381.2,232.2 379.9,232.7 378.3,233.6 377.3,233.2 376.4,232.2 375.3,231.7 373.5,231.6 
			372.5,232.2 372.4,233.4 371.4,233.9 369.2,234.2 367.1,232.8 365.9,232.7 364.6,232.1 361.8,229.9 360.7,228.9 359.8,228.1 
			358.2,225.4 355.7,228.2 355.1,229.2 354.6,230.9 352.9,233.9 352.4,236.2 352,237.3 351.4,237.8 351.3,238.4 351.2,238.6 
			351.2,238.6 352.2,238.8 353,239.6 353.5,240.7 353.6,242.1 354.5,243.1 356.6,243.7 357.4,244.3 358,245.2 358.3,245.9 
			358.4,246.7 358.6,247.3 359.4,247.4 360.3,248.1 360.4,248.3 361.1,248.3 364.4,248.8 365.2,248.7 366.1,247.8 367.4,245.2 
			368.1,243.7 369.3,243.2 371.1,243.4 372.2,243.3 373.2,241.9 373.8,241.7 375.4,242.8 376.1,242.7 376.5,241.7 377.4,240.9 
			378.6,240.9 379.5,240.7 380.9,239.2 381.9,238.7 382.7,238.6 384.3,237.7 385.4,237.7 386.5,237.6 388.5,236.7 389.4,236.7 
			390.2,236.8 392.7,237.1 392.7,237.1 393.2,236.7 393.4,236.3 394,236.1 394.6,235.3 394.8,234.3 395.4,233.4 396.7,232.7 
			397.2,231.6 397.2,230.7 398.1,229.8 		"/>
		<path id="Pingtung_County" class="st5" d="M371,311.2l-1-0.2l-0.1-0.9l-0.6-1.2l0,0l-0.9-0.2h-0.8l-1.6,1.2l-1.1-1l-1.4-1.6
			l-1.3,0.3l-1.2,1.1l-2.4-1.2l-1.7,0.8l-1.2,1.3l-1.5,0.5l-3.2-0.2l-0.3,0.9l-0.2,1.3l-0.5,1.4l0.1,1.3v1.7l-1,3.9v1.3l0.5,1.4
			l0.1,1.5l-1.5,3.7h0.1l0.4,0.3l0.9,0.8l0.8,0.6l1.8,0.9l0.8,0.5l0.1,0.2l0.2,0.7l0.2,0.1l0.2,0.1l0.6,0.3l1.5,1.2l0.4,0.5l0.8,1.8
			l1,1.2l0.3,0.5l3.6,9.4l-0.1,0.5l-0.4,0.6l-0.1,0.6v2l-0.1,0.6v0.4l0.1,0.4l1,1.7l-0.4,1.3v0.4l0.7,0.6l0.6,0.2l0.4-0.4l0.1-1.2
			l1.4,0.4l1.4,0.6l1.2,0.9l0.8,1.2l0.1-1.1l-0.3-1.7v-1.5l0.7-0.7l0.6-0.4l0.5-1.1l0.3-1.3l-0.2-9.4l-0.8,0.1l-1.9-0.9l-0.8-0.9
			l-0.6-1.1L366,337v-1l-0.6-0.8l-0.6-0.3l-0.5-0.7l0.1-0.8l0.4-0.7l1-0.6l0.5-0.7l-0.8-1l-0.5-0.9v-1l-0.2-1.3l-0.4-1.1l-0.2-1.2
			l0.1-2.7l0.6-1.4l0.7-1.2l0.4-1.2l1-0.8l1.4-0.3l0.9-0.5l1.8-0.7l0.4-0.9v-0.9l0.5-2.5L371,311.2z M346.3,335.2V335l0,0l-0.1-0.1
			l-0.1,0.1h-0.4l-0.5,0.6l0,0l-0.2,0.5l0.1,0.6l0,0l0,0l0.5-0.5l0.3-0.2l0.1-0.1l0.5-0.3v-0.1l0.1-0.1L346.3,335.2z"/>
		<path id="Penghu" class="st5" d="M296.3,285L296.3,285L296.3,285L296.3,285L296.3,285L296.3,285L296.3,285L296.3,285z
			 M296.3,284.8L296.3,284.8l0.1-0.2l-0.1-0.1V284.8z M308.8,263l0.2,0.5l0,0v0.1l0.1-0.2l0.4-0.4l0.4-0.2l0.1-0.3l-0.5-0.3v-0.1
			l-0.1-0.1l-0.1,0.2l-0.2,0.4L308.8,263L308.8,263L308.8,263z M301,290l-0.7,0.2l-0.2,0.2l0.3,0.9l0.2,0.3l0.3-0.2l0.3-0.4l0.2-0.2
			l0.1-0.3V290L301,290z M303.6,271.8l0.5-0.1l0.1-0.2l-0.1-0.4v-0.4l0.5-1.5l0.3-0.7l0.5-0.3l-0.8-0.7l-0.6,0.6l-0.6,1.9v0.9
			l-0.1,0.4l-0.4,0.2h-0.5l-0.3,0.1l-0.2,0.2l-0.1,0.4h0.7l0.2-0.2l0.2-0.1l0.3-0.1H303.6z M307.9,268.3l0.2,0.6l0.2,0.3l0.4-0.1
			l0.3-0.4l-0.2-0.6l0.4-0.4l-0.2-0.5l-0.6-0.5l-0.6-0.3l-1,0.7l0.8,0.8L307.9,268.3z M295.7,284.7L295.7,284.7L295.7,284.7
			L295.7,284.7l0.1,0.1L295.7,284.7L295.7,284.7z M296,280.3l-0.2-0.1h-0.1h-0.1v0.1l0,0l-0.2,0.4l0.1,0.1l0,0l0.1,0.1l0.4-0.1
			l0.1-0.2L296,280.3L296,280.3z M300.8,289.3l-0.3-0.6l-0.6-0.1l-0.2,0.2v0.5l0.4,0.4l0.4,0.1L300.8,289.3z M304.4,287.5l0.3-0.1
			l-0.1-0.2L304.4,287.5z M311.8,287.8l-0.1,0.1h-0.1h0.1l0,0L311.8,287.8L311.8,287.8L311.8,287.8L311.8,287.8L311.8,287.8z
			 M312.3,272.7l0.4,0.4l0.1-0.5l-0.2-0.7l-0.9-1.6l-0.3,0.5H311l-0.6-0.1l-0.7,0.2l0.1-0.2l0.2-0.8l-0.8,0.3l-1.3,0.8l-0.4-0.1
			h-0.3v0.7v0.7l0.2-0.1l0,0V272l0.1-0.2l0.3,0.4l0.3,0.3l0.4,0.2l0.4,0.2l-0.6,0.5l-0.8,0.2l-0.7-0.2l-0.5-0.6l-0.2,0.5l0.9,0.9
			l0.9,0.3l0.9-0.1l0.8-0.5l0.1-0.2l0.2-0.7l0.1-0.3l0.3-0.1l0.5-0.1l0.7-0.4l0.5,0.1L312.3,272.7z M312.2,287.8L312.2,287.8
			L312.2,287.8L312.2,287.8l-0.1,0.3l0.1,0.2l0.1,0.3l0,0l0,0l0.1-0.3l0.2-0.3h-0.1l0.1-0.2H312.2z M309.9,288.2L309.9,288.2
			L309.9,288.2L309.9,288.2L309.9,288.2z M305.6,282l-0.1,0.1l-0.2,0.3l-0.1,0.2l0.1,0.1l0.5-0.3h0.1h0.2v-0.2l-0.3-0.2H305.6z
			 M304.7,282l-0.1-0.3v-0.4l-0.1-0.1h-0.1l-0.5-0.7l-0.3,0.1l-0.4,0.9l0.1,0.4l0.4-0.1l0.2-0.1v0.8l-0.3,0.6l0.3,0.1l0.6,0.1
			l0.3-0.1l-0.1-0.2v-0.2l0.2-0.2l0.1-0.3l-0.1-0.1L304.7,282z M309.9,288.3L309.9,288.3l-0.2-0.1h-0.1h-0.3v0.1h-0.1l0.2,0.2l0,0
			l0,0l0,0h0.1h0.1l0,0h0.2L309.9,288.3L309.9,288.3z M306.2,275.7l-0.5-0.1l-0.4,0.2l0,0h-0.1l-0.2,0.1l-0.1,0.1l-0.3-0.1l-0.1,0.1
			l0,0l0,0l0,0l0.1,0.3h0.2l0,0v0.1l0.4-0.2l0.2-0.1h0.1l0.1-0.1h0.1L306.2,275.7L306.2,275.7L306.2,275.7z"/>
		<path id="New_Taipei_City" class="st2" d="M423.3,195.9l-0.8-0.2l-0.7-0.1l-1.3,0.2l-0.4-0.2l-0.5-0.7l-0.4-1.6l-0.1-0.9l0.1-0.5
			l0.3-0.7l-0.6-0.4l-6.3-1.5l-0.1,2.2v0.6l0.7,0.7l-0.1,0.4l-0.5,0.3l-0.7,0.3l-0.9-0.1l-1.9-0.8l-0.5-0.4l-0.7-0.6l-0.5-0.6
			l-0.3-0.6l-0.5-0.7l-0.1-0.5l0.6-0.4l1.3-0.6l0.8-0.5l0,0l-0.4-0.3l-0.2-0.2v-0.4l0.2-0.3l0.2-0.2v-0.2l-0.4-0.1l-0.6,0.1
			l-0.5,0.1l-0.2,0.1l-0.7-1.4l-1.8-2.6l-0.8-0.6l-2-0.2l-2,0.5l-1.7,0.9l-1.2,1.1l-0.6,1.1l-0.4,0.9l-0.1,0.2l-0.3,0.2l-0.3,0.3
			l-0.2,0.5l0.6,0.3l1.1,1.1l0.7,1l-0.6,0.3l-0.3-0.3l-0.2-0.5l-0.3-0.5l-0.6-0.2H395l-0.4,0.1l-0.3,0.2l-1.1,0.9l-0.9,0.3l-2,0.4
			l0,0l0.8,0.8l1.1,0.6l0.9,0.6l0.6,0.5l0.7,0.2l0.8,0.4l0.9,1.4l0.1,0.7l-0.2,0.8l-0.6,0.6L393,198l-0.7,0.7v1.1l-0.4,0.7l0.2,0.9
			l1,0.9l0.2,0.9l-0.2,1.2l0.9,0.5l1.3-0.1l0.9,0.4l1.5,2.2l-0.3,0.9l-0.6,0.7l0.1,0.9l0.3,1l1.6,1.5l0.4,1l1-0.3l0.9-0.3l0.7-0.6
			l0.9-0.6l1.2-0.6l0.7-0.5l-0.1-0.4l-0.2-0.6v-0.8l0.3-0.9l0.9-0.7l0.7-0.4l2.4-1l2.5-1.5l1.1-0.3l0.9-0.7l0.6-0.9l0.6-0.7l0.7-0.4
			l0.6-0.2l0.8-0.5l0.3-0.7l-0.5-0.6l0.3-0.5l2-0.4l0.7-0.4l1.5-0.8l1.1-0.2l0.6,0.3l0.1,0.2l0,0l1.6-0.8l-0.4-0.5L423.3,195.9z
			 M407.2,196.3l-1.4,1.7l-0.8,0.3h-1.1l-0.9-0.2l-0.7-0.6l-0.7-0.8l-1-0.8l-0.7-1.2l0.3-1.4l-0.2-1.1l-1-1l-0.7-0.8l0.3-0.5
			l0.3-0.4l0.4-0.8l0.6-0.7l2-1.2l0.5-0.5l0.7-0.4l0.7,0.2l0.4,0.4l-0.1,0.7l0.1,0.6l0.3,0.6l0.3,0.6l0.4,1.8l0.7,0.6l0.3,0.8
			l-0.3,1.2v0.9l0.8,0.5l0.7,0.6L407.2,196.3z"/>
		<polygon id="Nantou_County" class="st3" points="392,239.3 393,238.8 392.9,238.2 392.7,237.1 390.2,236.8 389.4,236.7 
			388.5,236.7 386.5,237.6 385.4,237.7 384.3,237.7 382.7,238.6 381.9,238.7 380.9,239.2 379.5,240.7 378.6,240.9 377.4,240.9 
			376.5,241.7 376.1,242.7 375.4,242.8 373.8,241.7 373.2,241.9 372.2,243.3 371.1,243.4 369.3,243.2 368.1,243.7 367.4,245.2 
			366.1,247.8 365.2,248.7 364.4,248.8 361.1,248.3 360.4,248.3 360.4,249.1 359.6,249.2 359.4,249.8 359.5,250.6 359.1,251.3 
			358.8,252.3 358.8,253.3 358.6,254.6 358.4,257 358.8,258.2 359.4,258.8 360.1,259 361.2,259.5 361,260.2 360.3,260.5 
			359.8,260.8 359.4,261.2 359.8,262.5 359.4,263.3 359.2,264.7 359.4,266 359,267 358.9,268 359.6,268.8 360.6,269.3 361.9,269 
			363.4,268.8 363.9,269.5 365,269.5 366.2,270 366.9,270.3 367.9,270.8 367.8,271.8 367.3,272.7 367.5,273.5 368,274.8 
			368.1,275.8 368.2,276.5 369.6,276.8 374.3,276.8 374.4,276.8 375.2,277 376.3,277.3 377.1,278.5 377.2,278.8 378.3,278.2 
			378.8,277.7 378.5,276.5 378.8,276 379.1,275.3 380,274.7 381.4,274.3 382.7,274.3 383.7,273.5 383.9,271.8 384.6,271 386,270.5 
			386.8,269.8 387.1,269 387.7,266.7 387.9,265.2 387.8,263.8 387.5,262.8 387,262 386.6,261.3 387.6,259.7 387.7,259 388.1,257.7 
			388.8,256.2 389.4,254.6 389.7,252.7 389.8,251.3 389.4,250.6 389.1,249.9 389.5,248.6 390.4,246.7 391.9,244.7 391.9,244.1 
			391.7,243.2 390.7,242.6 390.2,242.1 390.1,240.2 390.8,239.7 		"/>
		<polygon id="Miaoli_County" class="st2" points="388.7,225.8 387.9,224.3 387.3,223.7 387,222.9 386.1,222.2 383.8,222.8 
			383,222.7 381.7,222.8 380.3,223.2 379.6,223.1 379.8,222.2 380,221.2 379.8,220.6 379.6,220.1 379.8,219.4 379.9,218.8 
			380,218.2 379.9,217.2 379.2,216.6 377,215.6 375.9,214.7 375.2,213.8 374.4,211.8 374.3,211.9 373.5,212.2 372.7,211.8 
			372.2,211.2 371.4,210.7 370.2,210.2 370.2,210.2 370.1,210.3 369.5,210.7 369.3,211.1 369,212.1 368.3,212.7 367.8,213.4 
			368,214.4 366.7,214.2 365.6,214.4 364.8,215.1 364.1,215.8 363.8,216.3 363.6,216.8 363.2,217.2 362,217.6 361.7,218.1 
			361.4,219.2 360.4,221.1 360,222.1 359.8,223.2 359.5,224.1 358.2,225.4 358.2,225.4 359.8,228.1 360.7,228.9 361.8,229.9 
			364.6,232.1 365.9,232.7 367.1,232.8 369.2,234.2 371.4,233.9 372.4,233.4 372.5,232.2 373.5,231.6 375.3,231.7 376.4,232.2 
			377.3,233.2 378.3,233.6 379.9,232.7 381.2,232.2 383.3,230.4 384.3,229.8 385.2,229.1 386,228.6 386.9,228.6 387.8,228.2 
			388.1,227.2 388.8,226.7 		"/>
		<polygon id="Keelung" class="st5" points="412.6,192.1 412.6,191.6 412.6,189.3 410.6,188.8 409.9,188.6 409.6,188.3 409.5,188.1 
			409.2,187.9 409.2,187.9 408.4,188.4 407.1,189.1 406.5,189.4 406.6,189.9 407.1,190.6 407.5,191.3 408,191.8 408.6,192.6 
			409.2,192.9 411.1,193.8 412,193.8 412.8,193.6 413.2,193.3 413.3,192.8 		"/>
		<polygon id="Kaohsiung" class="st2" points="378.6,285.5 378.1,284.2 376.9,283.2 375.9,282.5 375.7,281.8 376,281.3 377,280.8 
			377.5,279.8 377.2,278.8 377.1,278.5 376.3,277.3 375.2,277 374.4,276.8 371.1,278.5 369.6,279.8 368.9,281 368.1,281.8 
			366.7,282.7 365.3,283.8 364.5,284.8 362.2,286 361.2,286.2 359.9,286 359.3,286.8 359.2,287.7 359.5,288.5 359.7,289.7 
			359.7,289.7 359.3,290.8 357.4,293.5 355.6,296.7 354.4,298.3 353,299.5 351.9,300.5 350.7,301.7 349.8,303 349.2,304 348.8,305 
			347.7,305.8 346.5,306.2 345.8,306.7 345.1,307 343.5,306.8 342,306.8 339.2,306.5 338.3,306 337.6,304.5 337.6,304.3 336.5,305 
			336.8,307.5 337,307.8 337.5,308.8 337.6,309.3 337.8,309.5 338.1,309.7 338.2,309.8 338.1,310.3 337.8,311 337.8,311.5 
			338,312.3 338.9,314.2 339.7,315.5 340.2,316.5 340.5,317.7 340.3,318.3 339.9,319.3 340.2,320 340.8,320.8 342.5,322.3 
			343.4,323.5 343.7,324 343.7,324 344.1,324.8 344.4,326.2 342.1,323.3 344.3,326.5 346.7,328.3 347.1,328.3 347.4,328.2 
			347.7,328.2 348.1,328.3 349.6,324.7 349.6,323.2 349,321.8 349.1,320.5 350.1,316.5 350.1,314.8 350,313.5 350.5,312.2 
			350.7,310.8 351.1,310 354.3,310.2 355.7,309.7 356.9,308.3 358.6,307.5 361,308.8 362.2,307.7 363.5,307.3 364.9,309 366,310 
			367.5,308.8 368.3,308.8 369.2,308.8 369.2,308.8 369.9,308.8 369.7,307.8 368.6,306.8 368.1,305.8 367.8,304.5 368.2,302.7 
			369.8,301.3 370.6,300.3 370.6,298.3 371.1,295.8 370.7,294 370.9,292.8 372.2,292 372.7,291.2 372.3,290 372.5,289 373.9,288.2 
			374.6,287.5 375.8,286.7 378.6,286 		"/>
		<polygon id="Hualien_County" class="st5" points="413.2,233.1 413,232.7 412.9,232.4 412.7,232.3 412.7,232.3 412.6,232.3 
			410.5,232.1 407.2,230.1 406.5,230.2 406,231.2 405.2,232.1 404,232.1 402.5,231.4 399.7,230.8 398.5,230.2 398.1,229.8 
			397.2,230.7 397.2,231.6 396.7,232.7 395.4,233.4 394.8,234.3 394.6,235.3 394,236.1 393.4,236.3 393.2,236.7 392.7,237.1 
			392.7,237.1 392.9,238.2 393,238.8 392,239.3 390.8,239.7 390.1,240.2 390.2,242.1 390.7,242.6 391.7,243.2 391.9,244.1 
			391.9,244.7 390.4,246.7 389.5,248.6 389.1,249.9 389.4,250.6 389.8,251.3 389.7,252.7 389.4,254.6 388.8,256.2 388.1,257.7 
			387.7,259 387.6,259.7 386.6,261.3 387,262 387.5,262.8 387.8,263.8 387.9,265.2 387.7,266.7 387.1,269 386.8,269.8 386,270.5 
			384.6,271 383.9,271.8 383.7,273.5 382.7,274.3 381.4,274.3 380,274.7 379.1,275.3 378.8,276 378.5,276.5 378.8,277.7 
			378.3,278.2 377.2,278.8 377.5,279.8 377,280.8 376,281.3 375.7,281.8 375.9,282.5 376.9,283.2 378.1,284.2 378.6,285.5 
			378.6,286 378.8,287.3 379.8,288.8 381.2,289.3 382.3,289.8 383.2,290.7 384.3,290.8 385.4,291.2 387,294 389.2,295.8 390.7,296 
			391.8,295.3 392,294.2 392,293 392.6,291.8 393.4,289.5 394.1,288 394.5,286.5 395,285.3 395.6,284.3 396.3,283.2 396.2,281.8 
			395.9,280.7 396.6,279.7 398.5,278.8 399.2,278.8 399.2,278.8 401.2,267.3 402.1,265.5 403.5,258.2 404.7,255.1 405.3,252.2 
			405.3,250.9 405.5,250.3 406.1,249.2 406.3,248.7 406.3,248.1 406.2,247.7 405.9,247.6 405.7,247.2 405.3,246.2 405.3,245.3 
			405.6,244.6 406.9,242.6 407.4,240.3 407.9,239.2 408.4,238.8 409.6,237.9 409.8,237.7 409.6,237.2 409.9,236.9 410.7,236.2 
			411.9,234.7 412.9,233.7 413.2,233.2 		"/>
		<polygon id="Hsinchu_County" class="st5" points="396,218.2 395.1,217.7 393.8,217.1 393,216.6 392,216.3 390.9,215.7 390,214.9 
			389.9,214.2 390.7,212.9 391.1,211.6 390.8,210.2 390.7,209.3 390.1,208.8 389.3,208.4 388.8,207.7 388.2,206.9 387.5,207.1 
			386.8,206.9 386.2,206.3 385.5,205.7 384.3,205.4 383.7,204.7 383.9,203.7 383.2,202.9 382,202.6 381.2,202.2 380.4,201.9 
			379.5,201.6 378.8,200.1 378,199.4 375.5,199.7 374.9,199.4 374.9,199.4 374.5,200.1 374.1,201.2 374,201.7 374,201.8 
			373.6,202.1 373.1,202.4 372.7,202.9 372.6,203.4 372.5,204.2 372.2,204.6 372.2,204.6 373.7,205.2 376.4,206.2 377.4,206.7 
			378.1,207.3 378.5,208.1 378.3,208.7 377.8,208.9 376.9,209.1 375.8,209.6 375.2,210.2 374.8,211.3 374.4,211.8 375.2,213.8 
			375.9,214.7 377,215.6 379.2,216.6 379.9,217.2 380,218.2 379.9,218.8 379.8,219.4 379.6,220.1 379.8,220.6 380,221.2 
			379.8,222.2 379.6,223.1 380.3,223.2 381.7,222.8 383,222.7 383.8,222.8 386.1,222.2 387,222.9 387.3,223.7 387.9,224.3 
			388.7,225.8 388.8,226.7 388.9,226.6 390.9,226.4 391.4,226.6 392.2,224.7 394.7,222.1 395.4,221.1 395.3,220.2 395.5,219.3 		"/>
		<polygon id="Hsinchu" class="st3" points="378.1,207.3 377.4,206.7 376.4,206.2 373.7,205.2 372.2,204.6 372.2,204.6 371.9,204.9 
			371.6,205.4 371.8,205.8 371.9,206.2 371.9,206.6 371.8,206.8 371.4,207.3 370.4,209.4 370.2,210.2 370.2,210.2 371.4,210.7 
			372.2,211.2 372.7,211.8 373.5,212.2 374.3,211.9 374.4,211.8 374.8,211.3 375.2,210.2 375.8,209.6 376.9,209.1 377.8,208.9 
			378.3,208.7 378.5,208.1 		"/>
		<path id="Chiayi_County" class="st4" d="M334.2,282.5l0.1-0.3l-0.2,0.1l-0.4,0.7v0.3l0.2-0.2L334.2,282.5z M374.3,276.8h-4.7
			l-1.4-0.2l-0.2-0.7l-0.1-1.1l-0.5-1.2l-0.2-0.9l0.5-0.9l0.1-1l-0.9-0.5l-0.8-0.2l-1.2-0.5l-1-0.1h-0.1l-0.1,0.9v0.6l-0.7,0.2
			l-2.1,0.4l-1.1,0.1l-0.4-0.7l-0.9-0.6l-1.5,0.4l-0.7,0.1L354,270l-0.9-1.1l-1-0.8l-1.3,0.1l-2.3,0.4l-1.3,0.4l-3,1.7l-0.7,0.7
			l-0.8,0.4l-1.3,1l-1,0.2l-0.4,0.5l-0.3,0.9l-0.7,0.6h-1.1l-1.5-0.9l-1.9,0.2l0,0h-0.2v1.6l1.6-0.1l-0.7,1l-0.2,0.5l-0.3,0.4
			l-0.1,0.3l0.6,0.3v0.4l-0.4,0.7l0.8,1.5l0.7,1.9h-1h-0.7l-0.4,1v0.6h0.4l0.3,0.1l0.4-0.3l0.2,0.6l-0.3-0.1l-0.6,0.3h-0.7l1,0.4
			l1.6,0.2l1.3,0.3l1.1-0.5l0.5-0.9l1-0.6l1.2-0.9l0.8-0.9l1.1-0.8l1.4-0.6l2.8-0.5l1.5-0.1l1.3,0.4l0.7,0.4l0.4,0.8l0.3,0.9
			l1.8,1.8l0.2,1.4l-0.3,2.6l0.3,0.8l0.8,0.6h0.7l1-0.4l0.9-0.1l0.7,0.2l1.5,0.2l0,0l-0.2-1.2l-0.3-0.8v-0.9l0.7-0.6l1.2,0.1
			l1.1-0.1l2.2-1.3l0.8-1l1.5-1.1l1.4-0.8l0.8-0.9l0.7-1.2l1.5-1.2l3.4-1.7V276.8z M352.2,277.8l-0.8,0.1l-1.2,0.5l-1.3-0.3
			l-1.3-0.8l-1.1-0.4l-0.2-1l0.7-0.7l1.7-0.3l1.4-0.1l1,0.4l0.7,0.4l0.4,0.7l0.5,1.2L352.2,277.8z M334,284.3l-0.1-0.1l-0.2,0.3
			l-0.2,0.4l-0.4,0.6l0.1,0.2l0.3-0.2l0.3-0.6l0.3-0.3L334,284.3z M334.8,281.5L334.8,281.5l0.1-0.2v-0.5l-0.1-0.1V281.5z
			 M334.8,279.5l0.1,0.4v-0.1v0.1l0.1-0.3l0,0l0,0L334.8,279.5z M334.5,278.5L334.5,278.5l0.2,0.4l0.1-0.3l0,0l0,0L334.5,278.5z"/>
		<polygon id="Chiayi_City" class="st5" points="352.3,276.2 351.9,275.3 351.1,275 350.1,274.7 348.7,274.8 347,275 346.3,275.8 
			346.5,276.8 347.6,277.3 348.9,278 350.2,278.3 351.4,277.8 352.2,277.8 352.8,277.3 		"/>
		<polygon id="Changhua_County" class="st5" points="360.1,259 359.4,258.8 358.8,258.2 358.4,257 358.6,254.6 358.8,253.3 
			358.8,252.3 359.1,251.3 359.5,250.6 359.4,249.8 359.6,249.2 360.4,249.1 360.4,248.3 360.3,248.1 359.4,247.4 358.6,247.3 
			358.4,246.7 358.3,245.9 358,245.2 357.4,244.3 356.6,243.7 354.5,243.1 353.6,242.1 353.5,240.7 353,239.6 352.2,238.8 
			351.2,238.6 349.1,240.9 348.6,241.4 348.5,241.9 348.4,243.7 348.1,244.3 347.2,245.1 347,245.6 346.9,246.1 346.6,246.3 
			346.2,246.6 345.8,246.8 345.2,247.4 344.7,248.2 343.7,251.2 342.9,252.6 342.4,254.1 342.1,254.6 340.8,255.7 340.5,256.3 
			340.3,257.5 340.1,257.8 340.1,257.8 341.5,258.7 345.5,258.2 346.9,258.3 348.1,258.5 350.2,259.3 353.8,259.8 356,260.8 
			357,260.8 359.2,261.3 359.4,261.2 359.8,260.8 360.3,260.5 361,260.2 361.2,259.5 		"/>
	</g>
</g>
<g id="Lakes">
</g>
<g id="text">
</g>
<g id="copyright">
</g>
</svg>
